<mxfile host="Electron" modified="2024-02-05T01:47:36.703Z" agent="Mozilla/5.0 (X11; Linux x86_64) AppleWebKit/537.36 (KHTML, like Gecko) draw.io/22.1.21 Chrome/120.0.6099.109 Electron/28.1.0 Safari/537.36" etag="4mPf_ePWf_Ijs1ogfcqn" version="22.1.21" type="device">
  <diagram name="Page-1" id="ew7vi9b7o_5ddHdVxSJt">
    <mxGraphModel dx="819" dy="518" grid="0" gridSize="10" guides="1" tooltips="1" connect="1" arrows="1" fold="1" page="1" pageScale="1" pageWidth="850" pageHeight="1100" math="0" shadow="0">
      <root>
        <mxCell id="0" />
        <mxCell id="1" parent="0" />
        <mxCell id="vJ-0LwPgKh_OHDgVHOX4-1" value="" style="group;fillColor=#232136;strokeColor=#232136;strokeWidth=23;" parent="1" vertex="1" connectable="0">
          <mxGeometry x="146.34481871468003" y="68.06481871468003" width="550.98518128532" height="331.43518128531997" as="geometry" />
        </mxCell>
        <mxCell id="ZW6nNcWDt0XmGfBWngsh-110" value="Bran&amp;nbsp;&amp;nbsp;" style="rounded=1;whiteSpace=wrap;html=1;fontFamily=Helvetica;fontSize=14;fontColor=#FFFFFF;strokeWidth=4;strokeColor=#DB918D;fillColor=#232136;align=right;verticalAlign=top;fontStyle=0" parent="vJ-0LwPgKh_OHDgVHOX4-1" vertex="1">
          <mxGeometry x="283.98518128532" y="36.93518128531997" width="144" height="94" as="geometry" />
        </mxCell>
        <mxCell id="ZW6nNcWDt0XmGfBWngsh-109" value="&lt;font style=&quot;font-size: 14px;&quot;&gt;Looker&lt;/font&gt;" style="rounded=1;whiteSpace=wrap;html=1;fontFamily=Helvetica;fontSize=14;fontColor=#FFFFFF;rotation=-45;strokeWidth=4;strokeColor=#DB918D;fillColor=#232136;verticalAlign=top;fontStyle=0" parent="vJ-0LwPgKh_OHDgVHOX4-1" vertex="1">
          <mxGeometry x="-2.44" y="74.58" width="261.85" height="122.87" as="geometry" />
        </mxCell>
        <mxCell id="ZW6nNcWDt0XmGfBWngsh-108" value="DoThing&amp;nbsp;&amp;nbsp;" style="rounded=1;whiteSpace=wrap;html=1;fontFamily=Helvetica;fontSize=14;fontColor=#FFFFFF;strokeWidth=4;strokeColor=#DB918D;fillColor=#232136;verticalAlign=top;align=right;fontStyle=0" parent="vJ-0LwPgKh_OHDgVHOX4-1" vertex="1">
          <mxGeometry x="411.98518128532" y="141.93518128531997" width="139" height="94" as="geometry" />
        </mxCell>
        <mxCell id="ZW6nNcWDt0XmGfBWngsh-76" value="Smart Campus UIS" style="group;strokeColor=#DB918D;rounded=1;strokeWidth=4;fillColor=#232136;verticalAlign=bottom;fontColor=#FFFFFF;fontSize=14;fontStyle=0" parent="vJ-0LwPgKh_OHDgVHOX4-1" vertex="1" connectable="0">
          <mxGeometry x="160.98518128531995" y="157.43518128531997" width="190" height="174" as="geometry" />
        </mxCell>
        <mxCell id="ZW6nNcWDt0XmGfBWngsh-55" value="" style="sketch=0;outlineConnect=0;fontColor=#232F3E;gradientColor=none;strokeColor=#DB918D;fillColor=none;dashed=0;verticalLabelPosition=bottom;verticalAlign=top;align=center;html=1;fontSize=12;fontStyle=0;aspect=fixed;shape=mxgraph.aws4.resourceIcon;resIcon=mxgraph.aws4.lightbulb;fontFamily=Helvetica;container=0;" parent="ZW6nNcWDt0XmGfBWngsh-76" vertex="1">
          <mxGeometry x="127" y="76.00387755102038" width="53.26530612244897" height="53.26530612244897" as="geometry" />
        </mxCell>
        <mxCell id="ZW6nNcWDt0XmGfBWngsh-56" value="" style="sketch=0;outlineConnect=0;fontColor=#232F3E;gradientColor=none;strokeColor=#DB918D;fillColor=none;dashed=0;verticalLabelPosition=bottom;verticalAlign=top;align=center;html=1;fontSize=12;fontStyle=0;aspect=fixed;shape=mxgraph.aws4.resourceIcon;resIcon=mxgraph.aws4.house;fontFamily=Helvetica;container=0;" parent="ZW6nNcWDt0XmGfBWngsh-76" vertex="1">
          <mxGeometry x="20" y="14.001020408163264" width="53.26530612244897" height="53.26530612244897" as="geometry" />
        </mxCell>
        <mxCell id="ZW6nNcWDt0XmGfBWngsh-57" value="" style="sketch=0;outlineConnect=0;fontColor=#232F3E;gradientColor=none;strokeColor=#DB918D;fillColor=none;dashed=0;verticalLabelPosition=bottom;verticalAlign=top;align=center;html=1;fontSize=12;fontStyle=0;aspect=fixed;shape=mxgraph.aws4.resourceIcon;resIcon=mxgraph.aws4.thermostat;fontFamily=Helvetica;container=0;" parent="ZW6nNcWDt0XmGfBWngsh-76" vertex="1">
          <mxGeometry x="68.37" y="100.00326530612244" width="53.26530612244897" height="53.26530612244897" as="geometry" />
        </mxCell>
        <mxCell id="ZW6nNcWDt0XmGfBWngsh-58" value="" style="sketch=0;outlineConnect=0;fontColor=#232F3E;gradientColor=none;strokeColor=#DB918D;fillColor=none;dashed=0;verticalLabelPosition=bottom;verticalAlign=top;align=center;html=1;fontSize=12;fontStyle=0;aspect=fixed;shape=mxgraph.aws4.resourceIcon;resIcon=mxgraph.aws4.generic;fontFamily=Helvetica;container=0;" parent="ZW6nNcWDt0XmGfBWngsh-76" vertex="1">
          <mxGeometry x="124" y="14.001020408163264" width="53.26530612244897" height="53.26530612244897" as="geometry" />
        </mxCell>
        <mxCell id="ZW6nNcWDt0XmGfBWngsh-59" value="" style="sketch=0;outlineConnect=0;fontColor=#232F3E;gradientColor=none;strokeColor=#DB918D;fillColor=none;dashed=0;verticalLabelPosition=bottom;verticalAlign=top;align=center;html=1;fontSize=12;fontStyle=0;aspect=fixed;shape=mxgraph.aws4.resourceIcon;resIcon=mxgraph.aws4.utility;fontFamily=Helvetica;container=0;" parent="ZW6nNcWDt0XmGfBWngsh-76" vertex="1">
          <mxGeometry x="12" y="76.0073469387755" width="53.26530612244897" height="53.26530612244897" as="geometry" />
        </mxCell>
        <mxCell id="ZW6nNcWDt0XmGfBWngsh-61" value="" style="sketch=0;outlineConnect=0;fontColor=#232F3E;gradientColor=none;strokeColor=#DB918D;fillColor=none;dashed=0;verticalLabelPosition=bottom;verticalAlign=top;align=center;html=1;fontSize=12;fontStyle=0;aspect=fixed;shape=mxgraph.aws4.resourceIcon;resIcon=mxgraph.aws4.generic;fontFamily=Helvetica;container=0;" parent="ZW6nNcWDt0XmGfBWngsh-76" vertex="1">
          <mxGeometry x="73.27" y="44.00142857142856" width="53.26530612244897" height="53.26530612244897" as="geometry" />
        </mxCell>
        <mxCell id="ZW6nNcWDt0XmGfBWngsh-99" value="" style="group" parent="vJ-0LwPgKh_OHDgVHOX4-1" vertex="1" connectable="0">
          <mxGeometry x="108.98518128531995" y="117.43518128531997" width="294" height="33" as="geometry" />
        </mxCell>
        <mxCell id="ZW6nNcWDt0XmGfBWngsh-83" value="" style="endArrow=none;html=1;rounded=0;labelBackgroundColor=default;strokeColor=#D88F8C;strokeWidth=4;align=center;verticalAlign=middle;fontFamily=Helvetica;fontSize=11;fontColor=default;shape=connector;" parent="ZW6nNcWDt0XmGfBWngsh-99" edge="1">
          <mxGeometry width="50" height="50" relative="1" as="geometry">
            <mxPoint y="33" as="sourcePoint" />
            <mxPoint x="32" y="2" as="targetPoint" />
          </mxGeometry>
        </mxCell>
        <mxCell id="ZW6nNcWDt0XmGfBWngsh-94" value="" style="endArrow=none;html=1;rounded=0;labelBackgroundColor=default;strokeColor=#D88F8C;strokeWidth=4;align=center;verticalAlign=middle;fontFamily=Helvetica;fontSize=11;fontColor=default;shape=connector;" parent="ZW6nNcWDt0XmGfBWngsh-99" edge="1">
          <mxGeometry width="50" height="50" relative="1" as="geometry">
            <mxPoint x="294" y="31" as="sourcePoint" />
            <mxPoint x="262" as="targetPoint" />
          </mxGeometry>
        </mxCell>
        <mxCell id="ZW6nNcWDt0XmGfBWngsh-75" value="" style="sketch=0;outlineConnect=0;fontColor=#232F3E;gradientColor=none;fillColor=#DB918D;strokeColor=#DB918D;dashed=0;verticalLabelPosition=bottom;verticalAlign=top;align=center;html=1;fontSize=12;fontStyle=0;aspect=fixed;pointerEvents=1;shape=mxgraph.aws4.action;fontFamily=Helvetica;container=0;" parent="vJ-0LwPgKh_OHDgVHOX4-1" vertex="1">
          <mxGeometry x="421.98518128532" y="157.43518128531997" width="63" height="63" as="geometry" />
        </mxCell>
        <mxCell id="ZW6nNcWDt0XmGfBWngsh-74" value="" style="sketch=0;outlineConnect=0;fontColor=#232F3E;gradientColor=none;fillColor=#DB918D;strokeColor=#DB918D;dashed=0;verticalLabelPosition=bottom;verticalAlign=top;align=center;html=1;fontSize=12;fontStyle=0;aspect=fixed;pointerEvents=1;shape=mxgraph.aws4.backup_plan;fontFamily=Helvetica;container=0;" parent="vJ-0LwPgKh_OHDgVHOX4-1" vertex="1">
          <mxGeometry x="291.98518128532" y="52.43518128531997" width="63" height="63" as="geometry" />
        </mxCell>
        <mxCell id="ZW6nNcWDt0XmGfBWngsh-86" value="" style="endArrow=none;html=1;rounded=0;labelBackgroundColor=default;strokeColor=#D88F8C;strokeWidth=4;align=center;verticalAlign=middle;fontFamily=Helvetica;fontSize=11;fontColor=default;shape=connector;" parent="vJ-0LwPgKh_OHDgVHOX4-1" edge="1">
          <mxGeometry width="50" height="50" relative="1" as="geometry">
            <mxPoint x="273.98518128532" y="83.76518128531995" as="sourcePoint" />
            <mxPoint x="237.98518128531995" y="83.76518128531995" as="targetPoint" />
          </mxGeometry>
        </mxCell>
        <mxCell id="ZW6nNcWDt0XmGfBWngsh-106" value="" style="endArrow=none;html=1;rounded=0;labelBackgroundColor=default;strokeColor=#D88F8C;strokeWidth=4;align=center;verticalAlign=middle;fontFamily=Helvetica;fontSize=11;fontColor=default;shape=connector;" parent="vJ-0LwPgKh_OHDgVHOX4-1" edge="1">
          <mxGeometry width="50" height="50" relative="1" as="geometry">
            <mxPoint x="144.98518128531995" y="188.76518128531995" as="sourcePoint" />
            <mxPoint x="108.98518128531995" y="188.76518128531995" as="targetPoint" />
          </mxGeometry>
        </mxCell>
        <mxCell id="ZW6nNcWDt0XmGfBWngsh-107" value="" style="endArrow=none;html=1;rounded=0;labelBackgroundColor=default;strokeColor=#D88F8C;strokeWidth=4;align=center;verticalAlign=middle;fontFamily=Helvetica;fontSize=11;fontColor=default;shape=connector;" parent="vJ-0LwPgKh_OHDgVHOX4-1" edge="1">
          <mxGeometry width="50" height="50" relative="1" as="geometry">
            <mxPoint x="402.98518128532" y="188.76518128531995" as="sourcePoint" />
            <mxPoint x="366.98518128532" y="188.76518128531995" as="targetPoint" />
          </mxGeometry>
        </mxCell>
        <mxCell id="20svHSGNs2If8hIq7aWr-1" value="" style="sketch=0;outlineConnect=0;fontColor=#232F3E;gradientColor=none;fillColor=#DB918D;strokeColor=none;dashed=0;verticalLabelPosition=bottom;verticalAlign=top;align=center;html=1;fontSize=12;fontStyle=0;aspect=fixed;shape=mxgraph.aws4.mainframe_modernization_analyzer;" vertex="1" parent="1">
          <mxGeometry x="304.33" y="120.5" width="63" height="63" as="geometry" />
        </mxCell>
        <mxCell id="20svHSGNs2If8hIq7aWr-2" value="" style="sketch=0;outlineConnect=0;fontColor=#232F3E;gradientColor=none;fillColor=#DB918D;strokeColor=none;dashed=0;verticalLabelPosition=bottom;verticalAlign=top;align=center;html=1;fontSize=12;fontStyle=0;aspect=fixed;shape=mxgraph.aws4.application_discovery_service_aws_agentless_collector;" vertex="1" parent="1">
          <mxGeometry x="175.32999999999998" y="225.5" width="63" height="63" as="geometry" />
        </mxCell>
      </root>
    </mxGraphModel>
  </diagram>
</mxfile>
